<?xml version="1.0" standalone="no"?>
<svg xmlns="http://www.w3.org/2000/svg" viewBox="0 0 24 24" fill="#007DFF">
  <path d="M21.928 11.607c-.202-.488-.635-.605-.928-.633V8c0-1.103-.897-2-2-2h-6V4.61c.305-.274.5-.668.5-1.11a1.5 1.5 0 00-3 0c0 .442.195.836.5 1.11V6H5c-1.103 0-2 .897-2 2v2.997l-.082.006A1 1 0 002 12v1a1 1 0 00.883.993L3 14.01V19c0 1.103.897 2 2 2h14c1.103 0 2-.897 2-2v-5c.266-.026.609-.144.783-.526.174-.382.142-.802-.039-1.2l.184-.667zM5 19V8h14l.001 3.996L19 12v7H5zm2.5-5a1.5 1.5 0 11-.001 3.001A1.5 1.5 0 017.5 14zm3.5 0a1.5 1.5 0 11-.001 3.001A1.5 1.5 0 0111 14zm3.5 0a1.5 1.5 0 11-.001 3.001A1.5 1.5 0 0114.5 14zm3.5 0a1.5 1.5 0 11-.001 3.001A1.5 1.5 0 0118 14z"/>
</svg>
