<?xml version="1.0" standalone="no"?>
<svg xmlns="http://www.w3.org/2000/svg" viewBox="0 0 24 24" fill="#666666">
  <path d="M13.5 0.67s0.74 2.65 0.74 4.8c0 2.06-1.35 3.73-3.41 3.73-2.07 0-3.63-1.67-3.63-3.73l0.03-0.36c-2.02 2.21-3.23 5.15-3.23 8.38 0 5.52 4.48 10 10 10s10-4.48 10-10-4.48-10-10-10c-0.53 0-1.05 0.04-1.55 0.12l0.05-2.94zM12 21.5c-3.58 0-6.5-2.92-6.5-6.5 0-2.21 1.11-4.17 2.81-5.35 0.52 1.54 1.94 2.65 3.63 2.65 1.71 0 3.14-1.13 3.64-2.68 1.78 1.19 2.92 3.19 2.92 5.38 0 3.58-2.92 6.5-6.5 6.5z"/>
</svg>
