<?xml version="1.0" standalone="no"?>
<svg xmlns="http://www.w3.org/2000/svg" viewBox="0 0 48 48" fill="#666666">
  <path d="M13.41 16c1.72 0 3.12-1.4 3.12-3.12 0-1.72-1.4-3.12-3.12-3.12-1.72 0-3.12 1.4-3.12 3.12 0 1.72 1.4 3.12 3.12 3.12zm16.23-3.94C26.5 12.06 23.35 12 21 12c-2.34 0-5.5.06-8.65.06H9v4h3.35c.84 0 1.62.67 1.62 1.53v11.14c0 .86.66 1.53 1.5 1.53.86 0 1.5-.67 1.5-1.53v-7.26c0-.9.64-1.47 1.41-1.47.66 0 1.41.6 1.41 1.47v7.23c0 .86.73 1.53 1.59 1.53s1.47-.67 1.47-1.53v-7.23c0-.9.73-1.47 1.5-1.47.76 0 1.5.6 1.5 1.47v7.23c0 .86.74 1.53 1.61 1.53.86 0 1.5-.67 1.5-1.53V17.59c0-.86.73-1.53 1.59-1.53H33v-4h-3.36z"/>
</svg>
