<?xml version="1.0" standalone="no"?>
<svg xmlns="http://www.w3.org/2000/svg" viewBox="0 0 48 48" fill="#666666">
  <path d="M14 13.09c1.67 0 3.23.54 4.5 1.45C13.21 15.98 9 20.94 9 26.87c0 1.13.18 2.21.5 3.22-1 .22-1.61.31-2.5.31C3.35 30.4 0 27.05 0 23.4c0-3.65 3.35-6.99 7-6.99V12c-6.63 0-12 5.37-12 12s5.37 12 12 12c2.76 0 5.3-.94 7.32-2.5 3.4 1.56 7.18 2.5 11.18 2.5 7.73 0 14.5-3.47 19-8.86-3.39 1.17-7.09 1.86-11 1.86-8.41 0-16.28-2.92-22.5-7.91zm23.5-7.09l-4.25 4.31L30 8.06h-4l6-6 6 6h-4l-2.25 2.25L36 15l-3 3-4.5-4.92-4.5 4.92-3-3 4.5-9zm-15 19c1.66 0 3-1.34 3-3s-1.34-3-3-3-3 1.34-3 3 1.34 3 3 3z"/>
</svg>
