<?xml version="1.0" standalone="no"?>
<svg xmlns="http://www.w3.org/2000/svg" viewBox="0 0 1080 1920" fill="#F8F8F8">
  <defs>
    <linearGradient id="grad1" x1="0%" y1="0%" x2="100%" y2="100%">
      <stop offset="0%" style="stop-color:#007DFF;stop-opacity:0.3"/>
      <stop offset="100%" style="stop-color:#007DFF;stop-opacity:0.1"/>
    </linearGradient>
  </defs>
  <rect width="1080" height="1920" fill="url(#grad1)"/>
  <path fill="#007DFF" fill-opacity="0.05" d="M0,192L48,208C96,224,192,256,288,277.3C384,299,480,309,576,298.7C672,288,768,256,864,240C960,224,1056,224,1152,234.7C1248,245,1344,267,1392,277.3L1440,288L1440,0L1392,0C1344,0,1248,0,1152,0C1056,0,960,0,864,0C768,0,672,0,576,0C480,0,384,0,288,0C192,0,96,0,48,0L0,0Z"/>
  <path fill="#007DFF" fill-opacity="0.1" d="M0,384L48,384C96,384,192,384,288,368C384,352,480,320,576,309.3C672,299,768,309,864,325.3C960,341,1056,363,1152,352C1248,341,1344,299,1392,277.3L1440,256L1440,0L1392,0C1344,0,1248,0,1152,0C1056,0,960,0,864,0C768,0,672,0,576,0C480,0,384,0,288,0C192,0,96,0,48,0L0,0Z"/>
</svg>
